<?xml version="1.0" encoding="UTF-8" standalone="no"?>
<svg width="256" height="256" viewBox="0 0 256 256" version="1.1" xmlns="http://www.w3.org/2000/svg">
  <circle cx="128" cy="128" r="120" fill="#0078D7" />
  <g fill="white">
    <!-- Stylized CPU with threads -->
    <rect x="78" y="78" width="100" height="100" rx="10" ry="10" />
    
    <!-- CPU grid -->
    <rect x="90" y="90" width="30" height="30" rx="2" ry="2" fill="#0078D7" />
    <rect x="135" y="90" width="30" height="30" rx="2" ry="2" fill="#0078D7" />
    <rect x="90" y="135" width="30" height="30" rx="2" ry="2" fill="#0078D7" />
    <rect x="135" y="135" width="30" height="30" rx="2" ry="2" fill="#0078D7" />
    
    <!-- Thread connections (horizontal) -->
    <rect x="120" y="105" width="15" height="5" rx="2" ry="2" />
    <rect x="120" y="150" width="15" height="5" rx="2" ry="2" />
    
    <!-- Thread connections (vertical) -->
    <rect x="105" y="120" width="5" height="15" rx="2" ry="2" />
    <rect x="150" y="120" width="5" height="15" rx="2" ry="2" />
    
    <!-- Thread circles -->
    <circle cx="55" cy="90" r="8" />
    <circle cx="55" cy="166" r="8" />
    <circle cx="200" cy="90" r="8" />
    <circle cx="200" cy="166" r="8" />
    
    <!-- Connection lines to CPU -->
    <path d="M63 90 L 78 90" stroke="white" stroke-width="4" stroke-linecap="round" />
    <path d="M63 166 L 78 166" stroke="white" stroke-width="4" stroke-linecap="round" />
    <path d="M178 90 L 192 90" stroke="white" stroke-width="4" stroke-linecap="round" />
    <path d="M178 166 L 192 166" stroke="white" stroke-width="4" stroke-linecap="round" />
    
    <!-- Thread control slider -->
    <rect x="58" y="125" width="140" height="12" rx="6" ry="6" />
    
    <!-- Slider handle -->
    <circle cx="160" cy="131" r="12" fill="#FF8C00" />
  </g>
</svg>